# xmcd
#
# Track frame offsets: 
#        150
#        28893
#        51927
#        79704
#        110778
#        142047
#        166875
#        190224
#        216162
#        241416
#        268815
#
# Disc length: 3880 seconds
#
# Revision: 0
# Processed by: cddbd v1.5.2PL0 Copyright (c) Steve Scherf et al.
# Submitted via: ExactAudioCopy v0.95b4
#
DISCID=a50f260b
DTITLE=Blues Lick - Frankensteins Jünger
DYEAR=2008
DGENRE=Blues
TTITLE0=Frankensteins Jünger
TTITLE1=Neis von Henriette
TTITLE2=Kamikaze
TTITLE3=My Babe she's gone
TTITLE4=Der Geist des Blues
TTITLE5=Ich brauche dich
TTITLE6=Drei-Promille-Karl
TTITLE7=Route Sixty Six
TTITLE8=Dr. Faust
TTITLE9=Sie is ganga
TTITLE10=Überzeigte Gegner samma
EXTD=
EXTT0=
EXTT1=
EXTT2=
EXTT3=
EXTT4=
EXTT5=
EXTT6=
EXTT7=
EXTT8=
EXTT9=
EXTT10=
PLAYORDER=
